<?xml version="1.0" standalone="no"?>
<!DOCTYPE svg PUBLIC "-//W3C//DTD SVG 20010904//EN"
 "http://www.w3.org/TR/2001/REC-SVG-20010904/DTD/svg10.dtd">
<svg version="1.0" xmlns="http://www.w3.org/2000/svg"
 width="568.000000pt" height="568.000000pt" viewBox="0 0 568.000000 568.000000"
 preserveAspectRatio="xMidYMid meet">
<metadata>
Created by potrace 1.14, written by Peter Selinger 2001-2017
</metadata>
<g transform="translate(0.000000,568.000000) scale(0.100000,-0.100000)"
fill="#000000" stroke="none">
<path d="M1325 5663 c-76 -39 -120 -108 -117 -184 1 -20 22 -99 46 -175 83
-261 217 -688 221 -704 1 -3 4 -12 8 -20 8 -22 30 -94 30 -100 0 -3 14 -48 32
-100 18 -52 33 -98 34 -102 1 -4 3 -13 6 -20 2 -7 22 -74 46 -148 23 -74 50
-161 60 -192 11 -32 19 -64 19 -71 0 -8 -26 -31 -57 -53 -32 -21 -62 -43 -68
-47 -15 -12 -110 -80 -135 -97 -12 -8 -45 -32 -73 -52 -29 -20 -65 -47 -82
-58 -16 -12 -53 -38 -81 -58 -28 -20 -61 -44 -73 -52 -13 -8 -44 -31 -70 -50
-27 -19 -57 -41 -67 -48 -10 -7 -107 -75 -214 -152 -107 -77 -203 -145 -214
-152 -10 -7 -33 -24 -52 -38 -18 -14 -56 -41 -85 -60 -28 -19 -60 -43 -70 -52
-11 -10 -23 -18 -28 -18 -5 0 -21 -24 -36 -54 -56 -115 -2 -245 117 -277 26
-7 216 -12 532 -14 270 -2 643 -5 829 -7 l338 -3 9 -35 c9 -34 18 -75 24 -115
2 -11 8 -40 14 -65 6 -25 13 -56 16 -70 3 -14 17 -79 31 -145 15 -66 29 -131
31 -145 3 -14 9 -41 14 -60 5 -19 11 -46 13 -60 3 -14 15 -70 27 -125 12 -55
24 -109 26 -120 2 -11 10 -47 17 -80 15 -66 15 -65 21 -98 3 -12 14 -62 25
-112 33 -152 60 -279 65 -307 3 -15 7 -32 10 -36 3 -5 8 -28 11 -52 3 -23 7
-46 10 -50 3 -4 7 -25 10 -46 3 -22 8 -46 11 -54 3 -8 8 -26 10 -40 3 -14 21
-97 40 -185 36 -163 41 -188 48 -227 2 -13 9 -41 15 -63 6 -22 12 -49 14 -60
7 -47 53 -107 100 -132 40 -20 110 -27 151 -13 39 13 95 62 114 100 6 14 21
65 33 115 11 50 23 99 25 110 3 11 7 29 9 40 3 11 7 31 10 45 4 14 8 35 11 48
2 12 14 62 26 110 11 48 22 96 24 107 1 11 3 22 5 25 1 3 3 10 4 15 0 6 9 42
18 80 29 124 59 249 63 270 2 11 10 47 18 80 15 61 18 71 36 159 5 26 15 67
21 89 11 43 15 60 25 111 2 16 7 33 10 37 2 4 7 27 10 51 4 24 10 51 15 60 5
9 9 21 8 25 -1 4 0 10 1 13 2 6 6 23 13 60 3 14 13 57 22 95 9 39 19 81 21 95
3 14 7 33 10 42 3 9 7 25 9 35 2 10 11 50 20 88 9 39 19 81 21 95 3 14 7 33
10 42 3 10 7 30 10 45 3 16 9 42 14 58 5 17 14 55 20 85 l11 56 47 -3 c26 -1
311 -4 633 -6 323 -2 592 -7 598 -11 6 -4 11 -4 11 1 0 4 21 7 47 6 44 -2 82
-3 123 -3 8 1 36 0 61 -1 25 -1 50 1 57 4 6 4 13 4 16 -1 7 -12 92 -4 131 12
46 20 74 45 97 91 25 47 28 135 7 161 -8 10 -12 18 -9 19 17 8 -81 88 -348
286 -167 123 -323 238 -347 254 -24 17 -54 39 -67 50 -13 11 -34 27 -48 36
-14 9 -36 26 -49 38 -13 11 -27 21 -31 21 -3 0 -15 8 -26 18 -10 10 -41 33
-69 52 -27 19 -52 37 -55 40 -3 3 -48 37 -100 75 -52 38 -99 73 -105 79 -5 6
-32 27 -60 46 -94 65 -96 26 21 375 57 171 104 311 105 313 1 1 2 5 3 10 3 15
258 778 266 797 5 11 20 57 34 103 35 112 26 177 -34 240 -49 52 -156 70 -220
37 -39 -20 -174 -116 -178 -127 -2 -5 -10 -8 -18 -8 -8 0 -14 -3 -14 -8 0 -4
-9 -12 -20 -17 -20 -10 -612 -431 -633 -451 -13 -11 -131 -94 -217 -152 -30
-20 -57 -40 -60 -44 -3 -3 -30 -23 -60 -44 -30 -20 -81 -57 -113 -81 -31 -23
-63 -43 -71 -43 -13 0 -65 37 -183 129 -28 23 -55 41 -58 41 -4 0 -12 6 -19
13 -7 6 -25 21 -41 32 -15 11 -49 37 -76 58 -27 20 -53 37 -58 37 -5 0 -11 4
-13 8 -1 5 -30 28 -63 53 -33 24 -64 47 -70 52 -5 4 -62 46 -125 92 -63 46
-120 88 -125 92 -6 5 -41 31 -78 58 -37 28 -108 80 -157 118 -50 37 -94 67
-99 67 -5 0 -11 4 -13 8 -4 10 -152 121 -188 141 -37 20 -129 23 -165 4z"/>
</g>
</svg>
